<svg width="172" height="41" viewBox="0 0 172 41" fill="none" xmlns="http://www.w3.org/2000/svg">
<g clip-path="url(#clip0_3_14)">
<path d="M6.16086 9.82755L0.430057 30.3524C0.359486 30.6052 0.345549 30.661 0.262468 30.91C0.089176 31.4292 0 32.1775 0 32.7249V32.7781C0 33.3641 0.0260216 33.9642 0.296661 34.4839C0.305032 34.5 0.313585 34.5161 0.32232 34.5323C0.984367 35.7582 2.55141 35.9361 3.94462 35.9383L36.9763 35.9911C40.6588 35.997 44.9708 35.6828 46.4088 32.2927L52.7139 9.08573C52.9036 8.38745 52.9887 7.6649 52.9664 6.94165C52.9528 6.49908 52.9223 6.04744 52.7325 5.64741C52.6618 5.49854 52.5807 5.36045 52.4923 5.23276C51.7192 4.1161 50.2005 4.00149 48.8423 4.00442L20.7462 4.06504H13.4297C11.5436 4.06504 9.31373 4.38157 8.04637 5.77839C6.97259 6.96188 6.59061 8.28841 6.16086 9.82755Z" fill="#301AB7" stroke="#301AB7"/>
<path d="M30.5799 4.34229L30.5507 4.31151C30.3618 4.11262 30.0996 4 29.8254 4H27.4871C27.3638 4 27.2527 4.07421 27.2054 4.18809L27.2015 4.19738C27.1844 4.23857 27.1572 4.2748 27.1224 4.30272C27.0541 4.35751 26.9633 4.37517 26.8794 4.34994L26.8759 4.34889C26.8246 4.33344 26.779 4.30322 26.7447 4.26199L26.6916 4.19806C26.5874 4.07259 26.4327 4 26.2696 4H23.3632C22.4322 4 22.0064 5.16043 22.7163 5.76262L24.8716 7.59064C25.1857 7.85711 25.3045 8.28885 25.17 8.67823C23.8676 12.4502 22.4359 16.4372 20.9083 19.4797C19.8086 21.67 19.344 23.2437 17.8409 24.3489C17.8333 24.3545 17.8236 24.3564 17.8145 24.3541L15.8798 23.8689C14.5908 23.5456 13.2669 23.3821 11.9379 23.3821H11.4323C10.7637 23.3821 10.0705 23.3971 9.48466 23.7193C9.04367 23.9619 8.70944 24.2825 8.47496 24.5827C8.17987 24.9604 8.10406 25.4494 8.10406 25.9288C8.10406 26.5209 8.21914 27.1242 8.58673 27.5884C9.72378 29.0242 11.3529 29.1707 11.3997 29.1707H14.6577L14.8686 29.1446C15.3057 29.0343 16.8181 28.6001 17.7678 28.3249C17.9149 28.2823 18.0694 28.274 18.2202 28.3007L21.9566 28.9604C22.014 28.9705 22.0722 28.9756 22.1305 28.9756H22.6404C23.2017 28.9756 23.6482 29.4384 23.6848 29.9985C23.8698 32.8304 25.0713 34.7629 25.8827 35.6156C26.0467 35.7878 26.2796 35.8699 26.5174 35.8699H36.6394C36.8443 35.8699 37.0463 35.8096 37.2031 35.6775C38.2867 34.7646 39.5997 32.7413 40.4121 31.322C40.6656 30.8791 40.5232 30.3211 40.0995 30.0367L38.8401 29.1911C38.3914 28.8899 37.7844 29 37.4781 29.4453C36.6014 30.7201 36.0202 31.637 35.1173 32.2927C32.539 34.1651 29.9467 33.6434 28.5261 32.4878C27.6507 31.744 27.516 30.666 27.2204 29.7588C27.1916 29.6705 27.1754 29.5786 27.1754 29.4858C27.1754 29.1096 27.4316 28.7817 27.7967 28.6908L28.6696 28.4734C28.7179 28.4613 28.7653 28.4457 28.8113 28.4266L30.2315 27.837C30.283 27.8156 30.3327 27.79 30.38 27.7603L31.5516 27.0244C31.9599 26.7861 32.2085 26.5945 32.717 26.0104C32.7323 25.9928 32.7466 25.9729 32.7586 25.953L32.817 25.8563C33.0222 25.5169 33.4425 25.7172 33.4425 26.1138C33.4425 26.2062 33.5968 26.163 33.6839 26.1323C42.0063 23.1982 44.5913 16.9283 44.8421 14.1463V12.1734C44.8421 12.1014 44.8342 12.0281 44.818 11.9579C43.9721 8.30163 41.4632 7.42568 40.3039 7.44715H38.8451C36.4926 7.6466 34.4555 8.87808 33.2352 9.88159C32.7533 10.2779 32.0118 10.2439 31.6314 9.74939L30.0892 7.74425C29.8321 7.40992 29.8124 6.95019 30.0399 6.59507L30.6966 5.57031C30.9449 5.18287 30.8967 4.67602 30.5799 4.34229Z" fill="white"/>
<path d="M20.2059 13.8862L21.8807 10.374C18.0772 7.3561 16.7811 4.86721 16.6942 4H13.1284C13.1284 7.90244 17.8467 12.3252 20.2059 13.8862Z" fill="white"/>
<path d="M24.4037 25.9187L22.4047 25.7236C24.1876 23.6423 24.998 20.8455 25.9705 18.439C27.051 15.4471 27.6453 13.2358 28.2936 12.065L30.1305 14.6667C26.2406 19.4537 24.6738 24.1843 24.4037 25.9187Z" fill="#301AB7"/>
<path d="M12.1397 26.439H13.1662C14.5061 26.5431 15.0572 26.8726 15.1652 27.0244V27.4797C14.9491 27.8959 14.1027 28 13.7065 28H13.1662H12.2478C11.1673 27.6098 11.5455 26.5691 12.1397 26.439Z" fill="#301AB7"/>
<path d="M28.1315 25.4634C28.1856 25.3984 28.7798 22.9918 31.5352 18.8292C31.4993 18.8836 32.8318 23.9675 28.1315 25.4634Z" fill="#301AB7"/>
<path d="M34.2906 15.4471C35.1982 17.2683 35.137 20.7154 34.9929 22.2114C38.926 20.2862 40.7017 17.3767 41.0979 16.1626C42.2216 12.6764 40.1614 12.1517 38.9909 12.3902C37.0459 12.5984 35.0469 14.5149 34.2906 15.4471Z" fill="#301AB7"/>
<path d="M65.0791 29H61.9419L61.9663 26.0459H65.0791C65.9417 26.0459 66.6131 25.8913 67.0933 25.582C67.5734 25.2728 67.9111 24.7845 68.1064 24.1172C68.3099 23.4499 68.4116 22.575 68.4116 21.4927V18.7217C68.4116 17.8997 68.3587 17.2039 68.2529 16.6343C68.1471 16.0565 67.9681 15.5926 67.7158 15.2427C67.4635 14.8846 67.1258 14.6201 66.7026 14.4492C66.2795 14.2783 65.7546 14.1929 65.1279 14.1929H61.8809V11.2266H65.1279C66.1533 11.2266 67.0851 11.3934 67.9233 11.7271C68.7616 12.0607 69.4818 12.549 70.084 13.1919C70.6862 13.8267 71.1501 14.612 71.4756 15.5479C71.8011 16.4837 71.9639 17.5498 71.9639 18.7461V21.4927C71.9639 22.6971 71.8011 23.7632 71.4756 24.6909C71.1501 25.6187 70.6862 26.404 70.084 27.0469C69.4899 27.6816 68.7697 28.1659 67.9233 28.4995C67.077 28.8332 66.1289 29 65.0791 29ZM64.0171 11.2266V29H60.4404V11.2266H64.0171ZM83.0479 23.0796H86.6001C86.5513 24.4142 86.2827 25.5413 85.7944 26.4609C85.3062 27.3724 84.6104 28.0641 83.707 28.5361C82.8118 29.0081 81.7295 29.2441 80.46 29.2441C79.4753 29.2441 78.6004 29.0814 77.8354 28.7559C77.0705 28.4222 76.4194 27.9339 75.8823 27.291C75.3452 26.6481 74.9383 25.8547 74.6616 24.9106C74.3931 23.9585 74.2588 22.8639 74.2588 21.627V18.6118C74.2588 17.3748 74.4012 16.2803 74.686 15.3281C74.979 14.376 75.394 13.5785 75.9312 12.9355C76.4764 12.2845 77.1315 11.7962 77.8965 11.4707C78.6696 11.137 79.5404 10.9702 80.5088 10.9702C81.8027 10.9702 82.8851 11.2144 83.7559 11.7026C84.6266 12.1909 85.298 12.903 85.77 13.8389C86.2502 14.7666 86.5391 15.9019 86.6367 17.2446H83.0723C83.0479 16.3983 82.9502 15.735 82.7793 15.2549C82.6165 14.7666 82.3561 14.4248 81.998 14.2295C81.64 14.026 81.1436 13.9243 80.5088 13.9243C80.0368 13.9243 79.6299 14.0098 79.2881 14.1807C78.9463 14.3434 78.6655 14.6079 78.4458 14.9741C78.2261 15.3403 78.0633 15.8205 77.9575 16.4146C77.8599 17.0086 77.811 17.7329 77.811 18.5874V21.627C77.811 22.4652 77.8558 23.1813 77.9453 23.7754C78.0348 24.3613 78.1772 24.8415 78.3726 25.2158C78.5679 25.5902 78.8324 25.8628 79.166 26.0337C79.5078 26.2046 79.9391 26.29 80.46 26.29C81.0622 26.29 81.5464 26.2005 81.9126 26.0215C82.2869 25.8424 82.5636 25.521 82.7427 25.0571C82.9217 24.5933 83.0234 23.9341 83.0479 23.0796Z" fill="#0072F8"/>
<path d="M101.322 18.7339V21.7002C101.322 22.9535 101.167 24.0521 100.858 24.9961C100.557 25.932 100.125 26.7173 99.564 27.3521C99.0106 27.9787 98.3392 28.4507 97.5498 28.7681C96.7686 29.0854 95.9019 29.2441 94.9497 29.2441C93.9976 29.2441 93.1268 29.0854 92.3374 28.7681C91.5562 28.4507 90.8807 27.9787 90.311 27.3521C89.7495 26.7173 89.3141 25.932 89.0049 24.9961C88.6956 24.0521 88.541 22.9535 88.541 21.7002V18.7339C88.541 17.4481 88.6916 16.325 88.9927 15.3647C89.2938 14.3963 89.7292 13.5907 90.2988 12.9478C90.8685 12.2967 91.5439 11.8084 92.3252 11.4829C93.1064 11.1493 93.9731 10.9824 94.9253 10.9824C95.8774 10.9824 96.7441 11.1493 97.5254 11.4829C98.3066 11.8084 98.9821 12.2967 99.5518 12.9478C100.121 13.5907 100.557 14.3963 100.858 15.3647C101.167 16.325 101.322 17.4481 101.322 18.7339ZM97.7695 21.7002V18.7095C97.7695 17.8631 97.7085 17.1429 97.5864 16.5488C97.4644 15.9466 97.2812 15.4543 97.0371 15.0718C96.793 14.6893 96.4959 14.4085 96.146 14.2295C95.7961 14.0505 95.3892 13.9609 94.9253 13.9609C94.4614 13.9609 94.0505 14.0505 93.6924 14.2295C93.3424 14.4085 93.0454 14.6893 92.8013 15.0718C92.5653 15.4543 92.3862 15.9466 92.2642 16.5488C92.1502 17.1429 92.0933 17.8631 92.0933 18.7095V21.7002C92.0933 22.514 92.1543 23.2098 92.2764 23.7876C92.3984 24.3654 92.5815 24.8374 92.8257 25.2036C93.0698 25.5698 93.3669 25.8424 93.7168 26.0215C94.0749 26.1924 94.4858 26.2778 94.9497 26.2778C95.4054 26.2778 95.8083 26.1924 96.1582 26.0215C96.5163 25.8424 96.8133 25.5698 97.0493 25.2036C97.2853 24.8374 97.4644 24.3654 97.5864 23.7876C97.7085 23.2098 97.7695 22.514 97.7695 21.7002ZM107.633 11.2266V29H104.081V11.2266H107.633ZM111.954 11.2266H115.091L118.717 23.3848L122.33 11.2266H125.101L120.047 29H117.374L111.954 11.2266ZM110.685 11.2266H113.675L114.139 22.9453V29H110.685V11.2266ZM123.734 11.2266H126.737V29H123.294V22.9453L123.734 11.2266ZM135.648 21.2485H132.01L131.998 18.6606H135.099C135.587 18.6606 135.986 18.5793 136.295 18.4165C136.612 18.2456 136.844 17.9974 136.991 17.6719C137.145 17.3382 137.223 16.9354 137.223 16.4634C137.223 15.9181 137.153 15.4827 137.015 15.1572C136.877 14.8236 136.653 14.5794 136.344 14.4248C136.035 14.2702 135.632 14.1929 135.135 14.1929H133.231V29H129.654V11.2266H135.135C136.022 11.2266 136.816 11.3242 137.516 11.5195C138.215 11.7148 138.81 12.0119 139.298 12.4106C139.786 12.8094 140.156 13.314 140.409 13.9243C140.669 14.5347 140.799 15.2549 140.799 16.085C140.799 16.8174 140.653 17.4928 140.36 18.1113C140.067 18.7298 139.607 19.2344 138.98 19.625C138.362 20.0156 137.552 20.2354 136.551 20.2842L135.648 21.2485ZM135.526 29H130.997L132.425 26.0459H135.526C135.998 26.0459 136.38 25.9442 136.673 25.7407C136.966 25.5373 137.178 25.2646 137.308 24.9229C137.438 24.5729 137.503 24.1742 137.503 23.7266C137.503 23.222 137.442 22.7826 137.32 22.4082C137.206 22.0339 137.015 21.749 136.747 21.5537C136.478 21.3503 136.116 21.2485 135.66 21.2485H132.584L132.608 18.6606H136.344L137.186 19.686C138.138 19.6535 138.899 19.8366 139.469 20.2354C140.038 20.626 140.445 21.1387 140.689 21.7734C140.942 22.4001 141.068 23.0674 141.068 23.7754C141.068 24.9147 140.852 25.875 140.421 26.6562C139.998 27.4294 139.375 28.0153 138.553 28.4141C137.731 28.8047 136.722 29 135.526 29ZM143.705 11.2266H149.405C150.593 11.2266 151.607 11.43 152.445 11.8369C153.283 12.2438 153.926 12.846 154.374 13.6436C154.821 14.4411 155.045 15.4258 155.045 16.5977C155.045 17.5579 154.915 18.3799 154.654 19.0635C154.394 19.7389 154.024 20.3045 153.543 20.7603C153.063 21.2078 152.49 21.5659 151.822 21.8345L150.736 22.4814H146.109L146.097 19.5151H149.308C149.796 19.5151 150.199 19.4093 150.516 19.1978C150.842 18.978 151.082 18.6729 151.236 18.2822C151.399 17.8835 151.48 17.4196 151.48 16.8906C151.48 16.3291 151.407 15.849 151.261 15.4502C151.122 15.0433 150.899 14.734 150.589 14.5225C150.288 14.3027 149.894 14.1929 149.405 14.1929H147.281V29H143.705V11.2266ZM151.773 29L148.514 21.0776L152.262 21.0654L155.594 28.8291V29H151.773ZM163.968 14.4004L160.147 29H156.375L161.93 11.2266H164.286L163.968 14.4004ZM166.983 29L163.138 14.4004L162.784 11.2266H165.177L170.78 29H166.983ZM167.118 22.3716V25.3379H159.098V22.3716H167.118Z" fill="#F0F0F0"/>
</g>
<defs>
<clipPath id="clip0_3_14">
<rect width="172" height="41" fill="white"/>
</clipPath>
</defs>
</svg>
