<svg width="172" height="41" viewBox="0 0 172 41" fill="none" xmlns="http://www.w3.org/2000/svg">
<g clip-path="url(#clip0_6_25)">
<path d="M6.16086 9.82755L0.430058 30.3524C0.359486 30.6052 0.345549 30.661 0.262468 30.91C0.089176 31.4292 0 32.1775 0 32.7249V32.7781C0 33.3641 0.0260216 33.9642 0.296661 34.4839C0.305032 34.5 0.313585 34.5161 0.32232 34.5323C0.984367 35.7582 2.55141 35.9361 3.94462 35.9383L36.9763 35.9911C40.6588 35.997 44.9708 35.6828 46.4088 32.2927L52.7139 9.08573C52.9036 8.38745 52.9887 7.6649 52.9664 6.94165C52.9528 6.49908 52.9223 6.04744 52.7325 5.64741C52.6618 5.49854 52.5807 5.36045 52.4923 5.23276C51.7192 4.1161 50.2005 4.00149 48.8423 4.00442L20.7462 4.06504H13.4297C11.5436 4.06504 9.31373 4.38157 8.04637 5.77839C6.97259 6.96188 6.59061 8.28841 6.16086 9.82755Z" fill="#0C0059" stroke="#150767"/>
<g filter="url(#filter0_i_6_25)">
<path d="M47.465 9.83622H47.4803C47.8084 9.84622 48.0709 10.1512 48.0709 10.5262C48.0709 10.8462 47.8806 11.1137 47.6225 11.1937V11.4737C47.6225 11.5737 47.5525 11.6537 47.465 11.6537C47.3775 11.6537 47.3075 11.5737 47.3075 11.4737V11.1937C47.179 11.1542 47.0654 11.0674 46.9843 10.9468C46.9033 10.8261 46.8593 10.6783 46.8591 10.5262C46.8591 10.4262 46.9291 10.3462 47.0166 10.3462C47.1041 10.3462 47.1741 10.4262 47.1741 10.5262C47.1741 10.7112 47.3031 10.8587 47.4628 10.8587C47.6225 10.8587 47.7538 10.7087 47.7538 10.5262C47.7538 10.3437 47.6225 10.1937 47.4628 10.1937H47.4475C47.2901 10.1888 47.1406 10.114 47.0308 9.98519C46.9209 9.85635 46.8593 9.68363 46.8591 9.50372C46.8591 9.18372 47.0494 8.91622 47.3075 8.83622V8.55622C47.3075 8.45622 47.3775 8.37622 47.465 8.37622C47.5525 8.37622 47.6225 8.45622 47.6225 8.55622V8.83622C47.8806 8.91622 48.0709 9.18372 48.0709 9.50372C48.0709 9.60372 48.0009 9.68372 47.9134 9.68372C47.8259 9.68372 47.7559 9.60372 47.7559 9.50372C47.7559 9.32122 47.6247 9.17122 47.465 9.17122C47.3053 9.17122 47.1741 9.32122 47.1741 9.50372C47.1741 9.68622 47.3053 9.83622 47.465 9.83622V9.83622Z" fill="#807BB9"/>
</g>
<g filter="url(#filter1_i_6_25)">
<path d="M46.3039 6.27499L46.9133 7.08999L46.8475 7.17399C45.5932 7.49549 44.6562 8.77574 44.6562 10.3062C44.6562 11.6517 45.6118 12.7437 46.7891 12.7437H48.1388C49.3161 12.7437 50.2716 11.652 50.2716 10.3065C50.2738 8.77574 49.3368 7.49549 48.0825 7.17399C48.0876 7.12116 48.0793 7.06777 48.0585 7.02024L48.5769 6.34199L48.6104 6.28299C48.6495 6.18557 48.6595 6.07617 48.6388 5.97163C48.6182 5.86709 48.5681 5.77318 48.4962 5.70435C48.4243 5.63553 48.3347 5.59559 48.241 5.59069C48.1473 5.5858 48.0548 5.6162 47.9778 5.67724L47.7933 5.42724C47.752 5.37433 47.7013 5.33198 47.6447 5.30295C47.588 5.27391 47.5267 5.25885 47.4646 5.25873C47.4025 5.25861 47.3411 5.27344 47.2844 5.30226C47.2276 5.33108 47.1769 5.37324 47.1353 5.42599L46.9422 5.67249C46.8653 5.61018 46.7726 5.57856 46.6784 5.58252C46.5842 5.58648 46.4938 5.6258 46.4212 5.69439C46.3485 5.76298 46.2976 5.85702 46.2764 5.96197C46.2552 6.06692 46.2649 6.17693 46.3039 6.27499V6.27499ZM47.1349 6.62124L46.7639 6.13124C46.8501 6.1787 46.9476 6.19218 47.0412 6.16956C47.1348 6.14694 47.2192 6.08951 47.2812 6.00624L47.4563 5.74674L47.6505 6.00974C47.7111 6.09023 47.7928 6.1462 47.8834 6.16932C47.9741 6.19243 48.0689 6.18144 48.1536 6.13799L47.7844 6.62124H47.1349V6.62124ZM45.0938 10.3062C45.0938 8.80924 46.1551 7.59624 47.465 7.59624C48.7749 7.59624 49.8363 8.80924 49.8341 10.3057V10.3062C49.8339 10.82 49.6552 11.3127 49.3373 11.676C49.0194 12.0393 48.5883 12.2435 48.1388 12.2437H46.7891C46.3395 12.2435 45.9084 12.0393 45.5905 11.676C45.2726 11.3127 45.0939 10.82 45.0938 10.3062V10.3062Z" fill="#807BB9"/>
</g>
<g filter="url(#filter2_i_6_25)">
<path d="M41.535 13H27.3325C27.1484 13 27 13.1641 27 13.3675V16.319C27 16.5224 27.1484 16.6865 27.3325 16.6865H32.4759V29.9312C32.4759 30.1347 32.6243 30.2988 32.8084 30.2988H36.0591C36.2432 30.2988 36.3916 30.1347 36.3916 29.9312V16.6865H41.535C41.7191 16.6865 41.8675 16.5224 41.8675 16.319V13.3675C41.8675 13.1641 41.7191 13 41.535 13V13Z" fill="#11048D"/>
</g>
<g filter="url(#filter3_i_6_25)">
<path d="M16.1224 12.1183L8.63574 11.7936C8.4211 11.7843 8.24365 11.9486 8.23442 12.1616L7.48257 29.4978C7.47333 29.7107 7.6376 29.8898 7.85053 29.8991L15.3355 30.2237C20.5127 30.4482 24.1528 26.9606 24.3877 21.5448C24.6225 16.1307 21.2996 12.3428 16.1224 12.1183V12.1183ZM15.2992 25.9831C15.2511 25.9811 15.207 25.9671 15.1648 25.9498C15.1544 25.9511 15.1456 25.9541 15.1353 25.9537C15.1215 25.9548 15.111 25.9595 15.0973 25.9589L12.5731 25.8494C12.367 25.8405 12.2094 25.6668 12.2183 25.4624L12.6031 16.59C12.6119 16.3857 12.784 16.2262 12.99 16.2352L15.5142 16.3447C15.528 16.3452 15.538 16.3508 15.5517 16.3532C15.5603 16.3535 15.5704 16.3574 15.5807 16.3596C15.6243 16.346 15.6694 16.3359 15.7175 16.338C15.7914 16.3412 15.8649 16.3513 15.9386 16.3579C16.0671 16.3686 16.1955 16.3845 16.3219 16.4055C18.5609 16.783 19.9541 18.6945 19.839 21.3475C19.724 24.0005 18.1688 25.7842 15.9072 25.9665C15.7795 25.9764 15.6503 25.9812 15.5213 25.9807C15.4472 25.9827 15.3731 25.9863 15.2992 25.9831V25.9831Z" fill="#100071"/>
</g>
<path d="M65.0791 29H61.9419L61.9663 26.0459H65.0791C65.9417 26.0459 66.6131 25.8913 67.0933 25.582C67.5734 25.2728 67.9111 24.7845 68.1064 24.1172C68.3099 23.4499 68.4116 22.575 68.4116 21.4927V18.7217C68.4116 17.8997 68.3587 17.2039 68.2529 16.6343C68.1471 16.0565 67.9681 15.5926 67.7158 15.2427C67.4635 14.8846 67.1258 14.6201 66.7026 14.4492C66.2795 14.2783 65.7546 14.1929 65.1279 14.1929H61.8809V11.2266H65.1279C66.1533 11.2266 67.0851 11.3934 67.9233 11.7271C68.7616 12.0607 69.4818 12.549 70.084 13.1919C70.6862 13.8267 71.1501 14.612 71.4756 15.5479C71.8011 16.4837 71.9639 17.5498 71.9639 18.7461V21.4927C71.9639 22.6971 71.8011 23.7632 71.4756 24.6909C71.1501 25.6187 70.6862 26.404 70.084 27.0469C69.4899 27.6816 68.7697 28.1659 67.9233 28.4995C67.077 28.8332 66.1289 29 65.0791 29ZM64.0171 11.2266V29H60.4404V11.2266H64.0171ZM80.6309 11.2266V29H77.0786V11.2266H80.6309ZM85.0498 11.2266V14.1929H72.7451V11.2266H85.0498ZM93.4238 11.2266H96.561L100.187 23.3848L103.8 11.2266H106.571L101.517 29H98.8438L93.4238 11.2266ZM92.1543 11.2266H95.145L95.6089 22.9453V29H92.1543V11.2266ZM105.204 11.2266H108.207V29H104.764V22.9453L105.204 11.2266ZM110.562 22.8477V21.9565C110.562 20.923 110.685 20.0075 110.929 19.21C111.181 18.4124 111.539 17.7451 112.003 17.208C112.467 16.6628 113.024 16.2518 113.675 15.9751C114.334 15.6903 115.071 15.5479 115.885 15.5479C116.707 15.5479 117.443 15.6903 118.094 15.9751C118.753 16.2518 119.315 16.6628 119.779 17.208C120.251 17.7451 120.613 18.4124 120.865 19.21C121.118 20.0075 121.244 20.923 121.244 21.9565V22.8477C121.244 23.873 121.118 24.7845 120.865 25.582C120.613 26.3796 120.251 27.0509 119.779 27.5962C119.315 28.1414 118.757 28.5524 118.106 28.8291C117.455 29.1058 116.723 29.2441 115.909 29.2441C115.095 29.2441 114.359 29.1058 113.7 28.8291C113.049 28.5524 112.487 28.1414 112.015 27.5962C111.543 27.0509 111.181 26.3796 110.929 25.582C110.685 24.7845 110.562 23.873 110.562 22.8477ZM113.98 21.9565V22.8477C113.98 23.458 114.021 23.987 114.103 24.4346C114.192 24.8822 114.318 25.2524 114.481 25.5454C114.652 25.8384 114.855 26.054 115.091 26.1924C115.327 26.3307 115.6 26.3999 115.909 26.3999C116.218 26.3999 116.495 26.3307 116.739 26.1924C116.983 26.054 117.183 25.8384 117.337 25.5454C117.5 25.2524 117.618 24.8822 117.691 24.4346C117.773 23.987 117.813 23.458 117.813 22.8477V21.9565C117.813 21.3625 117.769 20.8416 117.679 20.394C117.59 19.9383 117.464 19.568 117.301 19.2832C117.138 18.9902 116.935 18.7705 116.69 18.624C116.454 18.4694 116.186 18.3921 115.885 18.3921C115.584 18.3921 115.315 18.4694 115.079 18.624C114.851 18.7705 114.652 18.9902 114.481 19.2832C114.318 19.568 114.192 19.9383 114.103 20.394C114.021 20.8416 113.98 21.3625 113.98 21.9565ZM126.761 18.6118V29H123.331V15.792H126.542L126.761 18.6118ZM126.249 21.9443L125.333 21.9688C125.317 20.9759 125.41 20.0848 125.614 19.2954C125.825 18.506 126.122 17.8346 126.505 17.2812C126.896 16.7197 127.359 16.2925 127.896 15.9995C128.442 15.6984 129.048 15.5479 129.715 15.5479C130.228 15.5479 130.696 15.6374 131.119 15.8164C131.55 15.9954 131.921 16.2803 132.23 16.6709C132.539 17.0615 132.779 17.5824 132.95 18.2334C133.121 18.8763 133.207 19.6657 133.207 20.6016V29H129.776V20.5771C129.776 20.0075 129.719 19.568 129.605 19.2588C129.492 18.9414 129.321 18.7217 129.093 18.5996C128.865 18.4694 128.58 18.4043 128.238 18.4043C127.913 18.4043 127.624 18.4979 127.372 18.6851C127.119 18.8641 126.908 19.1123 126.737 19.4297C126.574 19.7471 126.448 20.1214 126.358 20.5527C126.277 20.984 126.24 21.4479 126.249 21.9443ZM141.031 29.2441C140.128 29.2441 139.326 29.1058 138.626 28.8291C137.935 28.5524 137.349 28.1536 136.869 27.6328C136.389 27.1038 136.022 26.465 135.77 25.7163C135.518 24.9676 135.392 24.1131 135.392 23.1528V22.0664C135.392 20.9922 135.514 20.0522 135.758 19.2466C136.002 18.4328 136.348 17.7492 136.795 17.1958C137.243 16.6424 137.792 16.2314 138.443 15.9629C139.103 15.6862 139.847 15.5479 140.677 15.5479C141.507 15.5479 142.236 15.6862 142.862 15.9629C143.497 16.2314 144.022 16.6383 144.437 17.1836C144.852 17.7207 145.165 18.388 145.377 19.1855C145.589 19.9831 145.694 20.9108 145.694 21.9688V23.5312H136.844V21.1265H142.337V20.8213C142.337 20.2842 142.28 19.8366 142.167 19.4785C142.053 19.1123 141.874 18.8397 141.629 18.6606C141.385 18.4816 141.06 18.3921 140.653 18.3921C140.311 18.3921 140.022 18.4613 139.786 18.5996C139.55 18.738 139.363 18.9536 139.225 19.2466C139.086 19.5396 138.985 19.922 138.919 20.394C138.854 20.8579 138.822 21.4154 138.822 22.0664V23.1528C138.822 23.7632 138.875 24.2759 138.98 24.6909C139.086 25.0978 139.241 25.4315 139.444 25.6919C139.656 25.9442 139.912 26.1273 140.213 26.2412C140.514 26.347 140.864 26.3999 141.263 26.3999C141.865 26.3999 142.407 26.2941 142.887 26.0825C143.375 25.8628 143.79 25.5658 144.132 25.1914L145.499 27.2666C145.263 27.5758 144.938 27.8851 144.522 28.1943C144.107 28.5036 143.611 28.7559 143.033 28.9512C142.455 29.1465 141.788 29.2441 141.031 29.2441ZM150.821 27.4863L153.58 15.792H157.145L152.799 30.9775C152.701 31.3112 152.567 31.6693 152.396 32.0518C152.225 32.4424 151.997 32.8086 151.712 33.1504C151.436 33.5003 151.086 33.7852 150.663 34.0049C150.239 34.2246 149.731 34.3345 149.137 34.3345C148.836 34.3345 148.591 34.3141 148.404 34.2734C148.225 34.2409 147.997 34.1839 147.721 34.1025V31.4414C147.794 31.4414 147.863 31.4414 147.928 31.4414C148.001 31.4495 148.071 31.4536 148.136 31.4536C148.518 31.4536 148.823 31.4007 149.051 31.2949C149.279 31.1973 149.462 31.0426 149.601 30.8311C149.747 30.6195 149.869 30.355 149.967 30.0376L150.821 27.4863ZM150.113 15.792L152.164 25.2646L152.628 29.1221L150.321 29.3418L146.451 15.792H150.113Z" fill="white"/>
</g>
<defs>
<filter id="filter0_i_6_25" x="46.8591" y="8.37622" width="1.21185" height="7.2775" filterUnits="userSpaceOnUse" color-interpolation-filters="sRGB">
<feFlood flood-opacity="0" result="BackgroundImageFix"/>
<feBlend mode="normal" in="SourceGraphic" in2="BackgroundImageFix" result="shape"/>
<feColorMatrix in="SourceAlpha" type="matrix" values="0 0 0 0 0 0 0 0 0 0 0 0 0 0 0 0 0 0 127 0" result="hardAlpha"/>
<feOffset dy="4"/>
<feGaussianBlur stdDeviation="2"/>
<feComposite in2="hardAlpha" operator="arithmetic" k2="-1" k3="1"/>
<feColorMatrix type="matrix" values="0 0 0 0 0.0894166 0 0 0 0 0.0708333 0 0 0 0 1 0 0 0 0.25 0"/>
<feBlend mode="normal" in2="shape" result="effect1_innerShadow_6_25"/>
</filter>
<filter id="filter1_i_6_25" x="44.6562" y="5.25873" width="5.6153" height="11.485" filterUnits="userSpaceOnUse" color-interpolation-filters="sRGB">
<feFlood flood-opacity="0" result="BackgroundImageFix"/>
<feBlend mode="normal" in="SourceGraphic" in2="BackgroundImageFix" result="shape"/>
<feColorMatrix in="SourceAlpha" type="matrix" values="0 0 0 0 0 0 0 0 0 0 0 0 0 0 0 0 0 0 127 0" result="hardAlpha"/>
<feOffset dy="4"/>
<feGaussianBlur stdDeviation="2"/>
<feComposite in2="hardAlpha" operator="arithmetic" k2="-1" k3="1"/>
<feColorMatrix type="matrix" values="0 0 0 0 0.0894166 0 0 0 0 0.0708333 0 0 0 0 1 0 0 0 0.25 0"/>
<feBlend mode="normal" in2="shape" result="effect1_innerShadow_6_25"/>
</filter>
<filter id="filter2_i_6_25" x="27" y="13" width="14.8675" height="21.2988" filterUnits="userSpaceOnUse" color-interpolation-filters="sRGB">
<feFlood flood-opacity="0" result="BackgroundImageFix"/>
<feBlend mode="normal" in="SourceGraphic" in2="BackgroundImageFix" result="shape"/>
<feColorMatrix in="SourceAlpha" type="matrix" values="0 0 0 0 0 0 0 0 0 0 0 0 0 0 0 0 0 0 127 0" result="hardAlpha"/>
<feOffset dy="4"/>
<feGaussianBlur stdDeviation="2"/>
<feComposite in2="hardAlpha" operator="arithmetic" k2="-1" k3="1"/>
<feColorMatrix type="matrix" values="0 0 0 0 0.0894166 0 0 0 0 0.0708333 0 0 0 0 1 0 0 0 0.25 0"/>
<feBlend mode="normal" in2="shape" result="effect1_innerShadow_6_25"/>
</filter>
<filter id="filter3_i_6_25" x="7.48218" y="11.7932" width="16.9172" height="22.4407" filterUnits="userSpaceOnUse" color-interpolation-filters="sRGB">
<feFlood flood-opacity="0" result="BackgroundImageFix"/>
<feBlend mode="normal" in="SourceGraphic" in2="BackgroundImageFix" result="shape"/>
<feColorMatrix in="SourceAlpha" type="matrix" values="0 0 0 0 0 0 0 0 0 0 0 0 0 0 0 0 0 0 127 0" result="hardAlpha"/>
<feOffset dy="4"/>
<feGaussianBlur stdDeviation="2"/>
<feComposite in2="hardAlpha" operator="arithmetic" k2="-1" k3="1"/>
<feColorMatrix type="matrix" values="0 0 0 0 0.0894166 0 0 0 0 0.0708333 0 0 0 0 1 0 0 0 0.25 0"/>
<feBlend mode="normal" in2="shape" result="effect1_innerShadow_6_25"/>
</filter>
<clipPath id="clip0_6_25">
<rect width="172" height="41" fill="white"/>
</clipPath>
</defs>
</svg>
