<svg width="54" height="34" viewBox="0 0 54 34" fill="none" xmlns="http://www.w3.org/2000/svg">
<path d="M6.16086 6.82755L0.430058 27.3524C0.359486 27.6052 0.345549 27.661 0.262468 27.91C0.089176 28.4292 0 29.1775 0 29.7249V29.7781C0 30.3641 0.0260216 30.9642 0.296661 31.4839C0.305032 31.5 0.313585 31.5161 0.32232 31.5323C0.984367 32.7582 2.55141 32.9361 3.94462 32.9383L36.9763 32.9911C40.6588 32.997 44.9708 32.6828 46.4088 29.2927L52.7139 6.08573C52.9036 5.38745 52.9887 4.6649 52.9664 3.94165C52.9528 3.49908 52.9223 3.04744 52.7325 2.64741C52.6618 2.49854 52.5807 2.36045 52.4923 2.23276C51.7192 1.1161 50.2005 1.00149 48.8423 1.00442L20.7462 1.06504H13.4297C11.5436 1.06504 9.31373 1.38157 8.04637 2.77839C6.97259 3.96188 6.59061 5.28841 6.16086 6.82755Z" fill="#0C0059" stroke="#150767"/>
<g filter="url(#filter0_i_6_26)">
<path d="M47.465 6.83622H47.4803C47.8084 6.84622 48.0709 7.15122 48.0709 7.52622C48.0709 7.84622 47.8806 8.11372 47.6225 8.19372V8.47372C47.6225 8.57372 47.5525 8.65372 47.465 8.65372C47.3775 8.65372 47.3075 8.57372 47.3075 8.47372V8.19372C47.179 8.15422 47.0654 8.06744 46.9843 7.94679C46.9033 7.82614 46.8593 7.67833 46.8591 7.52622C46.8591 7.42622 46.9291 7.34622 47.0166 7.34622C47.1041 7.34622 47.1741 7.42622 47.1741 7.52622C47.1741 7.71122 47.3031 7.85872 47.4628 7.85872C47.6225 7.85872 47.7538 7.70872 47.7538 7.52622C47.7538 7.34372 47.6225 7.19372 47.4628 7.19372H47.4475C47.2901 7.18884 47.1406 7.11404 47.0308 6.98519C46.9209 6.85635 46.8593 6.68363 46.8591 6.50372C46.8591 6.18372 47.0494 5.91622 47.3075 5.83622V5.55622C47.3075 5.45622 47.3775 5.37622 47.465 5.37622C47.5525 5.37622 47.6225 5.45622 47.6225 5.55622V5.83622C47.8806 5.91622 48.0709 6.18372 48.0709 6.50372C48.0709 6.60372 48.0009 6.68372 47.9134 6.68372C47.8259 6.68372 47.7559 6.60372 47.7559 6.50372C47.7559 6.32122 47.6247 6.17122 47.465 6.17122C47.3053 6.17122 47.1741 6.32122 47.1741 6.50372C47.1741 6.68622 47.3053 6.83622 47.465 6.83622V6.83622Z" fill="#807BB9"/>
</g>
<g filter="url(#filter1_i_6_26)">
<path d="M46.3039 3.27499L46.9133 4.08999L46.8475 4.17399C45.5932 4.49549 44.6562 5.77574 44.6562 7.30624C44.6562 8.65174 45.6118 9.74374 46.7891 9.74374H48.1388C49.3161 9.74374 50.2716 8.65199 50.2716 7.30649C50.2738 5.77574 49.3368 4.49549 48.0825 4.17399C48.0876 4.12116 48.0793 4.06777 48.0585 4.02024L48.5769 3.34199L48.6104 3.28299C48.6495 3.18557 48.6595 3.07617 48.6388 2.97163C48.6182 2.86709 48.5681 2.77318 48.4962 2.70435C48.4243 2.63553 48.3347 2.59559 48.241 2.59069C48.1473 2.5858 48.0548 2.6162 47.9778 2.67724L47.7933 2.42724C47.752 2.37433 47.7013 2.33198 47.6447 2.30295C47.588 2.27391 47.5267 2.25885 47.4646 2.25873C47.4025 2.25861 47.3411 2.27344 47.2844 2.30226C47.2276 2.33108 47.1769 2.37324 47.1353 2.42599L46.9422 2.67249C46.8653 2.61018 46.7726 2.57856 46.6784 2.58252C46.5842 2.58648 46.4938 2.6258 46.4212 2.69439C46.3485 2.76298 46.2976 2.85702 46.2764 2.96197C46.2552 3.06692 46.2649 3.17693 46.3039 3.27499V3.27499ZM47.1349 3.62124L46.7639 3.13124C46.8501 3.1787 46.9476 3.19218 47.0412 3.16956C47.1348 3.14694 47.2192 3.08951 47.2812 3.00624L47.4563 2.74674L47.6505 3.00974C47.7111 3.09023 47.7928 3.1462 47.8834 3.16932C47.9741 3.19243 48.0689 3.18144 48.1536 3.13799L47.7844 3.62124H47.1349V3.62124ZM45.0938 7.30624C45.0938 5.80924 46.1551 4.59624 47.465 4.59624C48.7749 4.59624 49.8363 5.80924 49.8341 7.30574V7.30624C49.8339 7.82003 49.6552 8.31273 49.3373 8.67603C49.0194 9.03934 48.5883 9.24354 48.1388 9.24374H46.7891C46.3395 9.24354 45.9084 9.03934 45.5905 8.67603C45.2726 8.31273 45.0939 7.82003 45.0938 7.30624V7.30624Z" fill="#807BB9"/>
</g>
<defs>
<filter id="filter0_i_6_26" x="46.8591" y="5.37622" width="1.21185" height="7.2775" filterUnits="userSpaceOnUse" color-interpolation-filters="sRGB">
<feFlood flood-opacity="0" result="BackgroundImageFix"/>
<feBlend mode="normal" in="SourceGraphic" in2="BackgroundImageFix" result="shape"/>
<feColorMatrix in="SourceAlpha" type="matrix" values="0 0 0 0 0 0 0 0 0 0 0 0 0 0 0 0 0 0 127 0" result="hardAlpha"/>
<feOffset dy="4"/>
<feGaussianBlur stdDeviation="2"/>
<feComposite in2="hardAlpha" operator="arithmetic" k2="-1" k3="1"/>
<feColorMatrix type="matrix" values="0 0 0 0 0.0894166 0 0 0 0 0.0708333 0 0 0 0 1 0 0 0 0.25 0"/>
<feBlend mode="normal" in2="shape" result="effect1_innerShadow_6_26"/>
</filter>
<filter id="filter1_i_6_26" x="44.6562" y="2.25873" width="5.6153" height="11.485" filterUnits="userSpaceOnUse" color-interpolation-filters="sRGB">
<feFlood flood-opacity="0" result="BackgroundImageFix"/>
<feBlend mode="normal" in="SourceGraphic" in2="BackgroundImageFix" result="shape"/>
<feColorMatrix in="SourceAlpha" type="matrix" values="0 0 0 0 0 0 0 0 0 0 0 0 0 0 0 0 0 0 127 0" result="hardAlpha"/>
<feOffset dy="4"/>
<feGaussianBlur stdDeviation="2"/>
<feComposite in2="hardAlpha" operator="arithmetic" k2="-1" k3="1"/>
<feColorMatrix type="matrix" values="0 0 0 0 0.0894166 0 0 0 0 0.0708333 0 0 0 0 1 0 0 0 0.25 0"/>
<feBlend mode="normal" in2="shape" result="effect1_innerShadow_6_26"/>
</filter>
</defs>
</svg>
