<svg width="54" height="34" viewBox="0 0 54 34" fill="none" xmlns="http://www.w3.org/2000/svg">
<path d="M6.16086 6.82755L0.430057 27.3524C0.359486 27.6052 0.345549 27.661 0.262468 27.91C0.089176 28.4292 0 29.1775 0 29.7249V29.7781C0 30.3641 0.0260216 30.9642 0.296661 31.4839C0.305032 31.5 0.313585 31.5161 0.32232 31.5323C0.984367 32.7582 2.55141 32.9361 3.94462 32.9383L36.9763 32.9911C40.6588 32.997 44.9708 32.6828 46.4088 29.2927L52.7139 6.08573C52.9036 5.38745 52.9887 4.6649 52.9664 3.94165C52.9528 3.49908 52.9223 3.04744 52.7325 2.64741C52.6618 2.49854 52.5807 2.36045 52.4923 2.23276C51.7192 1.1161 50.2005 1.00149 48.8423 1.00442L20.7462 1.06504H13.4297C11.5436 1.06504 9.31373 1.38157 8.04637 2.77839C6.97259 3.96188 6.59061 5.28841 6.16086 6.82755Z" fill="#301AB7" stroke="#301AB7"/>
<path d="M30.5799 1.34229L30.5507 1.31151C30.3618 1.11262 30.0996 1 29.8254 1H27.4871C27.3638 1 27.2527 1.07421 27.2054 1.18809L27.2015 1.19738C27.1844 1.23857 27.1572 1.2748 27.1224 1.30272C27.0541 1.35751 26.9633 1.37517 26.8794 1.34994L26.8759 1.34889C26.8246 1.33344 26.779 1.30322 26.7447 1.26199L26.6916 1.19806C26.5874 1.07259 26.4327 1 26.2696 1H23.3632C22.4322 1 22.0064 2.16043 22.7163 2.76262L24.8716 4.59064C25.1857 4.85711 25.3045 5.28885 25.17 5.67823C23.8676 9.4502 22.4359 13.4372 20.9083 16.4797C19.8086 18.67 19.344 20.2437 17.8409 21.3489C17.8333 21.3545 17.8236 21.3564 17.8145 21.3541L15.8798 20.8689C14.5908 20.5456 13.2669 20.3821 11.9379 20.3821H11.4323C10.7637 20.3821 10.0705 20.3971 9.48466 20.7193C9.04367 20.9619 8.70944 21.2825 8.47496 21.5827C8.17987 21.9604 8.10406 22.4494 8.10406 22.9288C8.10406 23.5209 8.21914 24.1242 8.58673 24.5884C9.72378 26.0242 11.3529 26.1707 11.3997 26.1707H14.6577L14.8686 26.1446C15.3057 26.0343 16.8181 25.6001 17.7678 25.3249C17.9149 25.2823 18.0694 25.274 18.2202 25.3007L21.9566 25.9604C22.014 25.9705 22.0722 25.9756 22.1305 25.9756H22.6404C23.2017 25.9756 23.6482 26.4384 23.6848 26.9985C23.8698 29.8304 25.0713 31.7629 25.8827 32.6156C26.0467 32.7878 26.2796 32.8699 26.5174 32.8699H36.6394C36.8443 32.8699 37.0463 32.8096 37.2031 32.6775C38.2867 31.7646 39.5997 29.7413 40.4121 28.322C40.6656 27.8791 40.5232 27.3211 40.0995 27.0367L38.8401 26.1911C38.3914 25.8899 37.7844 26 37.4781 26.4453C36.6014 27.7201 36.0202 28.637 35.1173 29.2927C32.539 31.1651 29.9467 30.6434 28.5261 29.4878C27.6507 28.744 27.516 27.666 27.2204 26.7588C27.1916 26.6705 27.1754 26.5786 27.1754 26.4858C27.1754 26.1096 27.4316 25.7817 27.7967 25.6908L28.6696 25.4734C28.7179 25.4613 28.7653 25.4457 28.8113 25.4266L30.2315 24.837C30.283 24.8156 30.3327 24.79 30.38 24.7603L31.5516 24.0244C31.9599 23.7861 32.2085 23.5945 32.717 23.0104C32.7323 22.9928 32.7466 22.9729 32.7586 22.953L32.817 22.8563C33.0222 22.5169 33.4425 22.7172 33.4425 23.1138C33.4425 23.2062 33.5968 23.163 33.6839 23.1323C42.0063 20.1982 44.5913 13.9283 44.8421 11.1463V9.17336C44.8421 9.10136 44.8342 9.02808 44.818 8.95793C43.9721 5.30163 41.4632 4.42568 40.3039 4.44715H38.8451C36.4926 4.6466 34.4555 5.87808 33.2352 6.88159C32.7533 7.27787 32.0118 7.24394 31.6314 6.74939L30.0892 4.74425C29.8321 4.40992 29.8124 3.95019 30.0399 3.59507L30.6966 2.57031C30.9449 2.18287 30.8967 1.67602 30.5799 1.34229Z" fill="white"/>
<path d="M20.2059 10.8862L21.8807 7.37398C18.0772 4.3561 16.7811 1.86721 16.6942 1H13.1284C13.1284 4.90244 17.8467 9.3252 20.2059 10.8862Z" fill="white"/>
<path d="M24.4037 22.9187L22.4047 22.7236C24.1876 20.6423 24.998 17.8455 25.9705 15.439C27.051 12.4471 27.6453 10.2358 28.2936 9.06503L30.1305 11.6667C26.2406 16.4537 24.6738 21.1843 24.4037 22.9187Z" fill="#301AB7"/>
<path d="M12.1397 23.439H13.1662C14.5061 23.5431 15.0572 23.8726 15.1652 24.0244V24.4797C14.9491 24.8959 14.1027 25 13.7065 25H13.1662H12.2478C11.1673 24.6098 11.5455 23.5691 12.1397 23.439Z" fill="#301AB7"/>
<path d="M28.1315 22.4634C28.1856 22.3984 28.7798 19.9918 31.5352 15.8292C31.4993 15.8836 32.8318 20.9675 28.1315 22.4634Z" fill="#301AB7"/>
<path d="M34.2906 12.4471C35.1982 14.2683 35.137 17.7154 34.9929 19.2114C38.926 17.2862 40.7017 14.3767 41.0979 13.1626C42.2216 9.6764 40.1614 9.15174 38.9909 9.39022C37.0459 9.59835 35.0469 11.5149 34.2906 12.4471Z" fill="#301AB7"/>
</svg>
